<mxfile host="app.diagrams.net" modified="2022-08-02T04:08:46.018Z" agent="5.0 (Windows NT 10.0; Win64; x64) AppleWebKit/537.36 (KHTML, like Gecko) Chrome/103.0.0.0 Safari/537.36" etag="X-JVJt--7EUT50sg23tq" version="20.2.1" type="github">
  <diagram id="IMGtX_xeJiwx53mYde1T" name="Page-1">
    <mxGraphModel dx="2656" dy="1004" grid="1" gridSize="10" guides="1" tooltips="1" connect="1" arrows="1" fold="1" page="1" pageScale="1" pageWidth="827" pageHeight="1169" math="0" shadow="0">
      <root>
        <mxCell id="0" />
        <mxCell id="1" parent="0" />
        <mxCell id="NuNVfWL7bUpyGUGWeD8t-4" value="" style="edgeStyle=orthogonalEdgeStyle;rounded=0;orthogonalLoop=1;jettySize=auto;html=1;" parent="1" source="g8pWBzL7cT5TnSEEJ7Hc-1" target="NuNVfWL7bUpyGUGWeD8t-3" edge="1">
          <mxGeometry relative="1" as="geometry" />
        </mxCell>
        <mxCell id="g8pWBzL7cT5TnSEEJ7Hc-1" value="Consuper APP 註冊" style="rounded=0;whiteSpace=wrap;html=1;fillColor=#dae8fc;strokeColor=#6c8ebf;" parent="1" vertex="1">
          <mxGeometry x="354" y="200" width="120" height="60" as="geometry" />
        </mxCell>
        <mxCell id="NuNVfWL7bUpyGUGWeD8t-6" value="" style="edgeStyle=orthogonalEdgeStyle;rounded=0;orthogonalLoop=1;jettySize=auto;html=1;" parent="1" source="NuNVfWL7bUpyGUGWeD8t-3" target="NuNVfWL7bUpyGUGWeD8t-5" edge="1">
          <mxGeometry relative="1" as="geometry" />
        </mxCell>
        <mxCell id="NuNVfWL7bUpyGUGWeD8t-11" style="edgeStyle=orthogonalEdgeStyle;rounded=0;orthogonalLoop=1;jettySize=auto;html=1;entryX=0.5;entryY=0;entryDx=0;entryDy=0;exitX=0;exitY=0.5;exitDx=0;exitDy=0;" parent="1" source="NuNVfWL7bUpyGUGWeD8t-3" target="g8pWBzL7cT5TnSEEJ7Hc-1" edge="1">
          <mxGeometry relative="1" as="geometry">
            <Array as="points">
              <mxPoint x="320" y="440" />
              <mxPoint x="320" y="170" />
              <mxPoint x="414" y="170" />
            </Array>
          </mxGeometry>
        </mxCell>
        <mxCell id="NuNVfWL7bUpyGUGWeD8t-12" style="edgeStyle=orthogonalEdgeStyle;rounded=0;orthogonalLoop=1;jettySize=auto;html=1;entryX=0.5;entryY=0;entryDx=0;entryDy=0;exitX=0;exitY=0.5;exitDx=0;exitDy=0;" parent="1" source="NuNVfWL7bUpyGUGWeD8t-3" target="NuNVfWL7bUpyGUGWeD8t-7" edge="1">
          <mxGeometry relative="1" as="geometry">
            <Array as="points">
              <mxPoint x="320" y="440" />
              <mxPoint x="320" y="170" />
              <mxPoint x="210" y="170" />
            </Array>
          </mxGeometry>
        </mxCell>
        <mxCell id="NuNVfWL7bUpyGUGWeD8t-3" value="click&lt;br&gt;HKID 驗證" style="rhombus;whiteSpace=wrap;html=1;rounded=0;fillColor=#fff2cc;strokeColor=#d6b656;" parent="1" vertex="1">
          <mxGeometry x="357" y="400" width="114" height="80" as="geometry" />
        </mxCell>
        <mxCell id="NuNVfWL7bUpyGUGWeD8t-27" value="" style="edgeStyle=orthogonalEdgeStyle;rounded=0;orthogonalLoop=1;jettySize=auto;html=1;" parent="1" source="NuNVfWL7bUpyGUGWeD8t-5" target="NuNVfWL7bUpyGUGWeD8t-26" edge="1">
          <mxGeometry relative="1" as="geometry" />
        </mxCell>
        <mxCell id="NuNVfWL7bUpyGUGWeD8t-5" value="完成 HKID 驗證" style="whiteSpace=wrap;html=1;rounded=0;fillColor=#dae8fc;strokeColor=#6c8ebf;" parent="1" vertex="1">
          <mxGeometry x="354" y="790" width="120" height="60" as="geometry" />
        </mxCell>
        <mxCell id="NuNVfWL7bUpyGUGWeD8t-18" style="edgeStyle=orthogonalEdgeStyle;rounded=0;orthogonalLoop=1;jettySize=auto;html=1;" parent="1" source="NuNVfWL7bUpyGUGWeD8t-7" target="NuNVfWL7bUpyGUGWeD8t-17" edge="1">
          <mxGeometry relative="1" as="geometry" />
        </mxCell>
        <mxCell id="NuNVfWL7bUpyGUGWeD8t-7" value="CMS 手動批核" style="whiteSpace=wrap;html=1;rounded=0;fillColor=#dae8fc;strokeColor=#6c8ebf;" parent="1" vertex="1">
          <mxGeometry x="150" y="200" width="120" height="60" as="geometry" />
        </mxCell>
        <mxCell id="NuNVfWL7bUpyGUGWeD8t-10" value="重新嘗試" style="text;html=1;strokeColor=none;fillColor=none;align=center;verticalAlign=middle;whiteSpace=wrap;rounded=0;horizontal=1;labelBackgroundColor=none;" parent="1" vertex="1">
          <mxGeometry x="330" y="140" width="60" height="30" as="geometry" />
        </mxCell>
        <mxCell id="NuNVfWL7bUpyGUGWeD8t-21" style="edgeStyle=orthogonalEdgeStyle;rounded=0;orthogonalLoop=1;jettySize=auto;html=1;entryX=0.5;entryY=0;entryDx=0;entryDy=0;" parent="1" source="NuNVfWL7bUpyGUGWeD8t-17" target="NuNVfWL7bUpyGUGWeD8t-20" edge="1">
          <mxGeometry relative="1" as="geometry" />
        </mxCell>
        <mxCell id="NuNVfWL7bUpyGUGWeD8t-17" value="輸入&lt;br&gt;法定英文名字" style="shape=parallelogram;perimeter=parallelogramPerimeter;whiteSpace=wrap;html=1;fixedSize=1;fillColor=#d5e8d4;strokeColor=#82b366;" parent="1" vertex="1">
          <mxGeometry x="150" y="300" width="120" height="60" as="geometry" />
        </mxCell>
        <mxCell id="NuNVfWL7bUpyGUGWeD8t-33" style="edgeStyle=orthogonalEdgeStyle;rounded=0;orthogonalLoop=1;jettySize=auto;html=1;entryX=1;entryY=0.5;entryDx=0;entryDy=0;" parent="1" source="NuNVfWL7bUpyGUGWeD8t-20" target="NuNVfWL7bUpyGUGWeD8t-31" edge="1">
          <mxGeometry relative="1" as="geometry" />
        </mxCell>
        <mxCell id="NuNVfWL7bUpyGUGWeD8t-35" value="" style="edgeStyle=orthogonalEdgeStyle;rounded=0;orthogonalLoop=1;jettySize=auto;html=1;" parent="1" source="NuNVfWL7bUpyGUGWeD8t-20" target="NuNVfWL7bUpyGUGWeD8t-34" edge="1">
          <mxGeometry relative="1" as="geometry" />
        </mxCell>
        <mxCell id="NuNVfWL7bUpyGUGWeD8t-20" value="click&lt;br&gt;驗證 NOVA" style="rhombus;whiteSpace=wrap;html=1;rounded=0;fillColor=#fff2cc;strokeColor=#d6b656;" parent="1" vertex="1">
          <mxGeometry x="153" y="400" width="114" height="80" as="geometry" />
        </mxCell>
        <mxCell id="NuNVfWL7bUpyGUGWeD8t-25" style="edgeStyle=orthogonalEdgeStyle;rounded=0;orthogonalLoop=1;jettySize=auto;html=1;entryX=0.5;entryY=0;entryDx=0;entryDy=0;" parent="1" source="NuNVfWL7bUpyGUGWeD8t-24" target="g8pWBzL7cT5TnSEEJ7Hc-1" edge="1">
          <mxGeometry relative="1" as="geometry" />
        </mxCell>
        <mxCell id="NuNVfWL7bUpyGUGWeD8t-24" value="" style="ellipse;whiteSpace=wrap;html=1;aspect=fixed;fillColor=#080808;" parent="1" vertex="1">
          <mxGeometry x="404" y="120" width="20" height="20" as="geometry" />
        </mxCell>
        <mxCell id="NuNVfWL7bUpyGUGWeD8t-26" value="" style="ellipse;whiteSpace=wrap;html=1;aspect=fixed;fillColor=#080808;" parent="1" vertex="1">
          <mxGeometry x="404" y="890" width="20" height="20" as="geometry" />
        </mxCell>
        <mxCell id="NuNVfWL7bUpyGUGWeD8t-29" style="edgeStyle=orthogonalEdgeStyle;rounded=0;orthogonalLoop=1;jettySize=auto;html=1;entryX=0.5;entryY=0;entryDx=0;entryDy=0;" parent="1" source="NuNVfWL7bUpyGUGWeD8t-28" target="NuNVfWL7bUpyGUGWeD8t-7" edge="1">
          <mxGeometry relative="1" as="geometry" />
        </mxCell>
        <mxCell id="NuNVfWL7bUpyGUGWeD8t-28" value="" style="ellipse;whiteSpace=wrap;html=1;aspect=fixed;fillColor=#080808;" parent="1" vertex="1">
          <mxGeometry x="200" y="120" width="20" height="20" as="geometry" />
        </mxCell>
        <mxCell id="NuNVfWL7bUpyGUGWeD8t-38" style="edgeStyle=orthogonalEdgeStyle;rounded=0;orthogonalLoop=1;jettySize=auto;html=1;entryX=0.5;entryY=0;entryDx=0;entryDy=0;" parent="1" source="NuNVfWL7bUpyGUGWeD8t-31" target="NuNVfWL7bUpyGUGWeD8t-34" edge="1">
          <mxGeometry relative="1" as="geometry">
            <Array as="points">
              <mxPoint x="30" y="510" />
              <mxPoint x="210" y="510" />
            </Array>
          </mxGeometry>
        </mxCell>
        <mxCell id="NuNVfWL7bUpyGUGWeD8t-31" value="click 強制通過 NOVA" style="whiteSpace=wrap;html=1;rounded=0;fillColor=#f8cecc;strokeColor=#b85450;" parent="1" vertex="1">
          <mxGeometry x="-30" y="410" width="120" height="60" as="geometry" />
        </mxCell>
        <mxCell id="NuNVfWL7bUpyGUGWeD8t-37" style="edgeStyle=orthogonalEdgeStyle;rounded=0;orthogonalLoop=1;jettySize=auto;html=1;entryX=1;entryY=0.5;entryDx=0;entryDy=0;" parent="1" source="NuNVfWL7bUpyGUGWeD8t-34" target="NuNVfWL7bUpyGUGWeD8t-36" edge="1">
          <mxGeometry relative="1" as="geometry" />
        </mxCell>
        <mxCell id="NuNVfWL7bUpyGUGWeD8t-40" value="" style="edgeStyle=orthogonalEdgeStyle;rounded=0;orthogonalLoop=1;jettySize=auto;html=1;" parent="1" source="NuNVfWL7bUpyGUGWeD8t-34" target="NuNVfWL7bUpyGUGWeD8t-39" edge="1">
          <mxGeometry relative="1" as="geometry" />
        </mxCell>
        <mxCell id="NuNVfWL7bUpyGUGWeD8t-34" value="click&lt;br&gt;驗證 AML" style="rhombus;whiteSpace=wrap;html=1;rounded=0;fillColor=#fff2cc;strokeColor=#d6b656;" parent="1" vertex="1">
          <mxGeometry x="153" y="540" width="114" height="80" as="geometry" />
        </mxCell>
        <mxCell id="NuNVfWL7bUpyGUGWeD8t-43" style="edgeStyle=orthogonalEdgeStyle;rounded=0;orthogonalLoop=1;jettySize=auto;html=1;entryX=0.5;entryY=0;entryDx=0;entryDy=0;" parent="1" source="NuNVfWL7bUpyGUGWeD8t-36" target="NuNVfWL7bUpyGUGWeD8t-39" edge="1">
          <mxGeometry relative="1" as="geometry">
            <Array as="points">
              <mxPoint x="30" y="640" />
              <mxPoint x="210" y="640" />
            </Array>
          </mxGeometry>
        </mxCell>
        <mxCell id="NuNVfWL7bUpyGUGWeD8t-36" value="click 強制通過 AML" style="whiteSpace=wrap;html=1;rounded=0;fillColor=#f8cecc;strokeColor=#b85450;" parent="1" vertex="1">
          <mxGeometry x="-30" y="550" width="120" height="60" as="geometry" />
        </mxCell>
        <mxCell id="NuNVfWL7bUpyGUGWeD8t-45" value="" style="edgeStyle=orthogonalEdgeStyle;rounded=0;orthogonalLoop=1;jettySize=auto;html=1;" parent="1" source="NuNVfWL7bUpyGUGWeD8t-39" target="NuNVfWL7bUpyGUGWeD8t-44" edge="1">
          <mxGeometry relative="1" as="geometry" />
        </mxCell>
        <mxCell id="NuNVfWL7bUpyGUGWeD8t-39" value="輸入剩餘欄位&lt;br&gt;(中文姓名, 生日, &lt;br&gt;性別, ID number)" style="shape=parallelogram;perimeter=parallelogramPerimeter;whiteSpace=wrap;html=1;fixedSize=1;fillColor=#d5e8d4;strokeColor=#82b366;" parent="1" vertex="1">
          <mxGeometry x="140" y="680" width="140" height="60" as="geometry" />
        </mxCell>
        <mxCell id="NuNVfWL7bUpyGUGWeD8t-46" style="edgeStyle=orthogonalEdgeStyle;rounded=0;orthogonalLoop=1;jettySize=auto;html=1;entryX=0;entryY=0.5;entryDx=0;entryDy=0;" parent="1" source="NuNVfWL7bUpyGUGWeD8t-44" target="NuNVfWL7bUpyGUGWeD8t-5" edge="1">
          <mxGeometry relative="1" as="geometry" />
        </mxCell>
        <mxCell id="NuNVfWL7bUpyGUGWeD8t-44" value="保存" style="whiteSpace=wrap;html=1;rounded=0;fillColor=#f8cecc;strokeColor=#b85450;" parent="1" vertex="1">
          <mxGeometry x="140" y="790" width="140" height="60" as="geometry" />
        </mxCell>
        <mxCell id="NuNVfWL7bUpyGUGWeD8t-47" value="Start" style="text;html=1;strokeColor=none;fillColor=none;align=center;verticalAlign=middle;whiteSpace=wrap;rounded=0;labelBackgroundColor=none;" parent="1" vertex="1">
          <mxGeometry x="384" y="90" width="60" height="30" as="geometry" />
        </mxCell>
        <mxCell id="NuNVfWL7bUpyGUGWeD8t-48" value="Start" style="text;html=1;strokeColor=none;fillColor=none;align=center;verticalAlign=middle;whiteSpace=wrap;rounded=0;labelBackgroundColor=none;" parent="1" vertex="1">
          <mxGeometry x="180" y="90" width="60" height="30" as="geometry" />
        </mxCell>
        <mxCell id="NuNVfWL7bUpyGUGWeD8t-49" value="End" style="text;html=1;strokeColor=none;fillColor=none;align=center;verticalAlign=middle;whiteSpace=wrap;rounded=0;labelBackgroundColor=none;" parent="1" vertex="1">
          <mxGeometry x="384" y="910" width="60" height="30" as="geometry" />
        </mxCell>
      </root>
    </mxGraphModel>
  </diagram>
</mxfile>
